/* XPM */
static char *result[] = {
/* columns rows colors chars-per-pixel */
"32 32 16 1 ",
"  c black",
". c #7C743F",
"X c gray30",
"o c #6D6D6D",
"O c #854203",
"+ c #B2A65A",
"@ c #C9BD71",
"# c #FFE74A",
"$ c #808080",
"% c gray51",
"& c gray61",
"* c gray73",
"= c #FFCCA3",
"- c gray83",
"; c #E1E1E1",
": c None",
/* pixels */
"::::::::::::::::::::::::::::::::",
":::::::::::::::   ::::::::::::::",
":::::::::::::: &&& :::::::::::::",
"::::::::::::: &&&&& ::::::::::::",
":::::::::::: &&&&&&& :::::::::::",
"::::::::::: &@#####@& ::::::::::",
"::::::::::: &#%%%%%#& ::::::::::",
"::::::::::: &@##%##@& ::::::::::",
"::::::::::: &&&#%#&&& ::::::::::",
"::::::::::: &&&#%#&&& :::::::   ",
":::::::::::: &&#$#&& ::::::: ;; ",
":::::::::::   &&&&&   ::::: ;-; ",
":::::::::: &&##&&&##&& ::: ;-; :",
"::::::    #&&OO###OO&&# : ;-; ::",
"::::: -------O#&&&#O&&#  ;-; :::",
":::: -OOOOOOO-&###&&&&&&;-; ::::",
":::: -O#OOO#O-&&&&&#&&&.-; :::::",
":::: -OO#O#OO-&&&&&#&&=.. ::::::",
":::: -OOO#OOO-&+++&& &O= :::::::",
":::: -OO#O#OO-O#X#OO O  ::::::::",
":::: -O#OOO#O-#&*&##- ::::::::::",
"::::  -OOOOO-&&&*&&& :::::::::::",
":::::  -OOO- &&& &&& :::::::::::",
"::::::: -O-  #& : &# :::::::::::",
":::::::: - : oo : oo :::::::::::",
":::::::::   &&& : &&&  :::::::::",
"::::::::: &#&&&& &&&&#& ::::::::",
":::::::: &&&&&& : &&&&&& :::::::",
":::::::::      :::      ::::::::",
"::::::::::::::::::::::::::::::::",
"::::::::::::::::::::::::::::::::",
"::::::::::::::::::::::::::::::::"
};
