/* XPM */
static char *result[] = {
/* columns rows colors chars-per-pixel */
"32 32 6 1 ",
"  c black",
". c #618834",
"X c #4CAF50",
"o c #8BC34A",
"O c #AED581",
"+ c None",
/* pixels */
"++++++++++++++++++++++++++++++++",
"++++++++++++++++++++++   +++++++",
"++++++++++++++++++++      ++++++",
"++++++++++++++++++    XX  ++++++",
"+++++++++++++++++   OOX  +++++++",
"++++++++++++++++  OOoXX  +++++++",
"+++++++++++++    OoooX  ++++++++",
"++++++++++      OoooXX  ++++++++",
"+++++++++    OOoooooX  +++++++++",
"+++++++   OOOoooooooXX   +++++++",
"++++++   OoooooooooooXX   ++++++",
"+++++  OOoooooooooooooXXX  +++++",
"++++  OOooooooooooooooooXX  ++++",
"++++  OOooooooooooooooooXX  ++++",
"+++  OOooooooooooooooooooXX  +++",
"++  OOOooooooooooooooooooXXX  ++",
"++  OOOoooooooooo  ooo  ooXX  ++",
"++  OOooooooooooo  ooo  ooXX  ++",
"+  OOOooooooooooo  ooo  ooXXX  +",
"+  OOoooooooooooo  ooo  ooXXX  +",
"+  OOoooooooooooooooooooooXXX  +",
"+  OOooooooooo oooooooooooXXX  +",
"+  OOoooooooooo       ooooXXX  +",
"+  OOOoooooooooo ... oooooXXX  +",
"++  OOooooooooooo   oooooXXX  ++",
"++  OOOooooooooooooooooooXXX  ++",
"+++  OOOOooooooooooooooXXXX  +++",
"++++    OOoooooooooooXXX    ++++",
"+++++        oooooo        +++++",
"++++++++                ++++++++",
"+++++++++++++      +++++++++++++",
"++++++++++++++++++++++++++++++++"
};
