/* XPM */
static char *c38b999e78b9486385b1308f9c8aa449QFrN1dHYlB4NDpoF[] = {
/* columns rows colors chars-per-pixel */
"32 32 8 1 ",
"  c #896044",
". c #99684C",
"X c #A87554",
"o c #59A567",
"O c #6AC16E",
"+ c #6BC671",
"@ c #C18760",
"# c #CE9067",
/* pixels */
"+O+O+O+O+O+O+O+O+O+O+O+O+O+O+O+O",
"O+O+O+O+O+O+O+O+O+O+O+O+O+O+O+O+",
"+O+O+O+O+O+O+O+O+O+O+O+O+O+O+O+O",
"O+O+O+O+O+O+O+O+O+O+O+O+O+O+O+O+",
"+O+O+O+O+O+O+O+O+O+O+O+O+O+O+O+O",
"O+O+O+O+O+O+O+O+O+O+O+O+O+O+O+O+",
"+O+O+O+O+O+O          +O+O+O+O+O",
"O+O+O+O+O+  XX@@#@####  O+O+O+O+",
"+O+O+O+O+ XX@@@@@#@##### O+O+O+O",
"O+O+O+O+ ..X@@@@@@#@##### O+O+O+",
"+O+O+O+O ...X@@@@@@#@#@### O+O+O",
"O+O+O+O ....X@@@@@@@#@#@#@ +O+O+",
"+O+O+O+ .....X@@@@@@@@@@@@@ +O+O",
"O+O+O+O  .....X@@@@@@@@@@.. O+O+",
"+O+O+O+ . .....X@@@@@@@.... +O+O",
"O+O+O+O  . .....XX@@X..XX.. O+O+",
"+O+O+O+   . . ... XXXXXXXX. +O+O",
"O+O+O+O         ...XXXXXXX. O+O+",
"+O+O+   @@@@@@##   .X.XXXX. +O+O",
"O+O+ ..X@@@@@@@#### .X.XXX. O+O+",
"+O+ ....X@@@@@@@@### .X.X.X +O+O",
"O+O  ....X@@@@@@@@@          +O+",
"+O+ . ....XX@@@@@X ....@@@@## +O",
"O+O  . .....XXXXXX ....XXX@@@@ +",
"+Oo   . ....XoXXXX  ...XXXXXXX o",
"O+oo   .  . ooXXXXo   ..XoXXXXoo",
"+O+Oooooo  oooo  ooo   ooo   ooO",
"O+O+Ooo+OoooO+ooo+O+ooo+ooooo+O+",
"+O+O+O+O+O+O+O+O+O+O+O+O+O+O+O+O",
"O+O+O+O+O+O+O+O+O+O+O+O+O+O+O+O+",
"+O+O+O+O+O+O+O+O+O+O+O+O+O+O+O+O",
"O+O+O+O+O+O+O+O+O+O+O+O+O+O+O+O+"
};
