/* XPM */
static char *_9121198ad9c4182b97f3d1d4ce195edWGPOMKVvNz3rMNqo[] = {
/* columns rows colors chars-per-pixel */
"36 37 10 1 ",
"  c None",
". c black",
"X c #181C32",
"o c #1D235D",
"O c #9E2E46",
"+ c #33418A",
"@ c #425B9E",
"# c #4D8AB3",
"$ c #65B1B8",
"% c white",
/* pixels */
"                                    ",
"                                    ",
"                                    ",
"                                    ",
"                                    ",
"                                    ",
"                                    ",
"                                    ",
"                                    ",
"                                    ",
"                                    ",
"                                    ",
"            oooooooo                ",
"           o@#######o               ",
"          o@##$$$$$$@o              ",
"          o##$$$$$$$$o              ",
"          o##$$%.$$.$@o             ",
"         o@#$$$..$$.$#o             ",
"         o@#$++$$$$$+#o             ",
"         o@#$$++++++$#o             ",
"        Xo@@#$$OO++$#@oX            ",
"        XXo@@#######@@oX            ",
"        XXXX@@@@@@@@@oXX            ",
"         XXXXXXXXXXXXXX             ",
"                                    ",
"                                    ",
"                                    ",
"                                    ",
"                                    ",
"                                    ",
"                                    ",
"                                    ",
"                                    ",
"                                    ",
"                                    ",
"                                    ",
"                                    "
};
