/* XPM */
static char *result[] = {
/* columns rows colors chars-per-pixel */
"32 32 9 1 ",
"  c black",
". c gray2",
"X c #18330D",
"o c #234914",
"O c #33691E",
"+ c #709661",
"@ c #64FFDA",
"# c #9BB590",
"$ c None",
/* pixels */
"$$$$$$$$$$$$$$$$$$$$$$$$$$$$$$$$",
"$$$$$$$$$$$$$$$$$$$$$$$$$$$$$$$$",
"$$$$$$$$$$$$$$$$$$$$$$$$$$$$$$$$",
"$$$$$$$$$$$$$$$$$$$$$$$$$$$$$$$$",
"$$$$$$$$$$$$$$$$$$$$$$$$$$$$$$$$",
"$$$$$$$$$$$$$$$$$$$$$$$$$$$$$$$$",
"$$$$$$$$$$$$$$$$$$$$$$$$$$$$$$$$",
"$$$$$$$$$$$$$$$$$$$$$$$$$$$$$$$$",
"$$$$$$$$$$$$      $$$$$$$$$$$$$$",
"$$$$$$$$$$   ###++    $$$$$$$$$$",
"$$$$$$$$$  ##+OOO+++O  $$$$$$$$$",
"$$$$$$$$$ #...O...OOOo $$$$$$$$$",
"$$$$$$$$ #+.@.O.@.OOOo  $$$$$$$$",
"$$$$$$$ #+O...O...OOOOo $$$$$$$$",
"$$$$$$$ ++OOOOOOOOOOOoo  $$$$$$$",
"$$$$$$ #+OOOOOOOOOOOOoXX $$$$$$$",
"$$$$$$ +OOOO O O OOOooXX $$$$$$$",
"$$$$$$ +OOOOO O OooooXXX $$$$$$$",
"$$$$$$$ OoooooooooXXXXX  $$$$$$$",
"$$$$$$$$                $$$$$$$$",
"$$$$$$$$$$$$$$$$$$$$$$$$$$$$$$$$",
"$$$$$$$$$$$$$$$$$$$$$$$$$$$$$$$$",
"$$$$$$$$$$$$$$$$$$$$$$$$$$$$$$$$",
"$$$$$$$$$$$$$$$$$$$$$$$$$$$$$$$$",
"$$$$$$$$$$$$$$$$$$$$$$$$$$$$$$$$",
"$$$$$$$$$$$$$$$$$$$$$$$$$$$$$$$$",
"$$$$$$$$$$$$$$$$$$$$$$$$$$$$$$$$",
"$$$$$$$$$$$$$$$$$$$$$$$$$$$$$$$$",
"$$$$$$$$$$$$$$$$$$$$$$$$$$$$$$$$",
"$$$$$$$$$$$$$$$$$$$$$$$$$$$$$$$$",
"$$$$$$$$$$$$$$$$$$$$$$$$$$$$$$$$",
"$$$$$$$$$$$$$$$$$$$$$$$$$$$$$$$$"
};
