/* XPM */
static char *result[] = {
/* columns rows colors chars-per-pixel */
"32 32 11 1 ",
"  c black",
". c gray2",
"X c #321C59",
"o c #D50000",
"O c #482880",
"+ c #673AB7",
"@ c #9575CD",
"# c #64FFDA",
"$ c #B59FDC",
"% c white",
"& c None",
/* pixels */
"&&&&&&&&&&&&&&&&&&&&&&&&&&&&&&&&",
"&&&&&&&&&&&&&&&& &&&&&&&&&&&&&&&",
"&&&&&&&&&&&&&&% & &&&&&&&&&&&&&&",
"&&&&&&&&&&&&&&  && &&&&&&&&&&&&&",
"&&&&&&&&&&&&& oo & &&&&&&&&&&&&&",
"&&&&&&&&&&&&& %% &&&&&&&&&&&&&&&",
"&&&&&&&&&&&& oooo &&&&&&&&&&&&&&",
"&&&&&&&&&&&& %%%% &&&&&&&&&&&&&&",
"&&&&&&&&&&&        &&&&&&&&&&&&&",
"&&&&&&&&&&   $$$@@    &&&&&&&&&&",
"&&&&&&&&&  $$@+++@@@+  &&&&&&&&&",
"&&&&&&&&& $...+...+++O &&&&&&&&&",
"&&&&&&&& $@.#.+.#.+++O  &&&&&&&&",
"&&&&&&& $@+...+...++++O &&&&&&&&",
"&&&&&&& @@+++++++++++OO  &&&&&&&",
"&&&&&& $@++++++++++++OXX &&&&&&&",
"&&&&&& @++++ + + +++OOXX &&&&&&&",
"&&&&&& @+++++ + +OOOOXXX &&&&&&&",
"&&&&&&& +OOOOOOOOOXXXXX  &&&&&&&",
"&&&&&&&&                &&&&&&&&",
"&&&&&&&&&&&&&&&&&&&&&&&&&&&&&&&&",
"&&&&&&&&&&&&&&&&&&&&&&&&&&&&&&&&",
"&&&&&&&&&&&&&&&&&&&&&&&&&&&&&&&&",
"&&&&&&&&&&&&&&&&&&&&&&&&&&&&&&&&",
"&&&&&&&&&&&&&&&&&&&&&&&&&&&&&&&&",
"&&&&&&&&&&&&&&&&&&&&&&&&&&&&&&&&",
"&&&&&&&&&&&&&&&&&&&&&&&&&&&&&&&&",
"&&&&&&&&&&&&&&&&&&&&&&&&&&&&&&&&",
"&&&&&&&&&&&&&&&&&&&&&&&&&&&&&&&&",
"&&&&&&&&&&&&&&&&&&&&&&&&&&&&&&&&",
"&&&&&&&&&&&&&&&&&&&&&&&&&&&&&&&&",
"&&&&&&&&&&&&&&&&&&&&&&&&&&&&&&&&"
};
