/* XPM */
static char *result[] = {
/* columns rows colors chars-per-pixel */
"32 32 9 1 ",
"  c black",
". c #3E2723",
"X c #4E342E",
"o c #E9665A",
"O c #58A767",
"+ c #6AC26E",
"@ c #6BC772",
"# c #E3CE72",
"$ c #DAFFFF",
/* pixels */
"@+@+@+@+@+@+@+@+@+@+@+@+@+@+@+@+",
"+@+@+@+@+@+@+@+@+@+@+@+@+@+@+@+@",
"@+@+$+@+@+@+@+@+@+@+@+@+@+@+@+@+",
"+@+$#$+@+@+@+@+@+@+@+@+@+@+@+@+@",
"@+@O$O@+@+@+@+@+@+@+@+@+@+@+@+@+",
"+@+@O@+@+@+@+@+@+@+@+@+@+@+@+@+@",
"@+@+@+@+@+@+@+@+@+@+@+@+$+@+@+@+",
"+@+@+@+@+@+@+@+@+@+@+@+$#$+@+@+@",
"@+@+@+@+@+@+@+@+@+@+@+@O$O@+@+@+",
"+@+@+@+@+@+@+@+@+@+@+@+@O@+@+@+@",
"@+@+@+@+@+@+@+@+@+@+@+@+@+@+@+@+",
"+@+@+@+@+XXXXXXXXXXXXX+@+@+@+@+@",
"@+@+@+XXX.............XXX+@+@+@+",
"+@+@+X....           ....X+@+@+@",
"@+@+...                ....+@+@+",
"+@+@+                     +@+@+@",
"@+@+@+                   +@+@+@+",
"+@+@+@+@+             +@+@+@+@+@",
"@+@+@+@+@+@+@+@+@+@+@+@+@+@+@+@+",
"+@+@$@+@+@+@+@+@+@+@+@+@+@+@+@+@",
"@+@$#$@+@+@+@+@+@+@+@o@+@+@+@+@+",
"+@+O$O+@+@+@+@+@+@+@o#o@+@+@+@+@",
"@+@+O+@+@+@+@+@+@+@+OoO+@+@+@+@+",
"+@+@+@+@+@+@+@+@+@+@+O+@+@+@+@+@",
"@+@+@+@+@+@+@+@+@+@+@+@+@+@+@+@+",
"+@+@+@+@+@+@+o+@+@+@+@+@+@+@+@+@",
"@+@+@+@+@+@+o#o+@+@+@+@+@+@+@+@+",
"+@+@+@+@+@+@OoO@+@+@+@+@+@+@+@+@",
"@+@+@+@+@+@+@O@+@+@+@+@+@+@+@+@+",
"+@+@+@+@+@+@+@+@+@+@+@+@+@+@+@+@",
"@+@+@+@+@+@+@+@+@+@+@+@+@+@+@+@+",
"+@+@+@+@+@+@+@+@+@+@+@+@+@+@+@+@"
};
