/* XPM */
static char *_6ca66879dd1430a9687b460b1147041VsEIKVxO9PEaSwcs[] = {
/* columns rows colors chars-per-pixel */
"32 32 6 1 ",
"  c #E8665A",
". c #59A567",
"X c #6AC16E",
"o c #6BC671",
"O c #E2CD71",
"+ c #D9FFFF",
/* pixels */
"oXoXoXoXoXoXoXoXoXoXoXoXoXoXoXoX",
"XoXoXoXoXoXoXoXoXoXoXoXoXoXoXoXo",
"oXoX+XoXoXoXoXoXoXoXoXoXoXoXoXoX",
"XoX+O+XoXoXoXoXoXoXoXoXoXoXoXoXo",
"oXo.+.oXoXoXoXoXoXoXoXoXoXoXoXoX",
"XoXo.oXoXoXoXoXoXoXoXoXoXoXoXoXo",
"oXoXoXoXoXoXoXoXoXoXoXoX+XoXoXoX",
"XoXoXoXoXoXoXoXoXoXoXoX+O+XoXoXo",
"oXoXoXoXoXoXoXoXoXoXoXo.+.oXoXoX",
"XoXoXoXoXoXoXoXoXoXoXoXo.oXoXoXo",
"oXoXoXoXoXoXoXoXoXoXoXoXoXoXoXoX",
"XoXoXoXoX XoXoXoXoXo oXoXoXoXoXo",
"oXoXoXoX O XoXoXoXo O oXoXoXoXoX",
"XoXoXoXo. .oXoXoXoX. .XoXoXoXoXo",
"oXoXoXoXo.oXoXoXoXoX.XoXoXoXoXoX",
"XoXoXoXoXoXoXoXoXoXoXoXoXoXoXoXo",
"oXoXoXoXoXoXoXoXoXoXoXoXoXoXoXoX",
"XoXoXoXoXoXoXoXoXoXoXoXoXoXoXoXo",
"oXoXoXoXoXoXoXoXoXoXoXoXoXoXoXoX",
"XoXo+oXoXoXoXoXoXoXoXoXoXoXoXoXo",
"oXo+O+oXoXoXoXoXoXoXo oXoXoXoXoX",
"XoX.+.XoXoXoXoXoXoXo O oXoXoXoXo",
"oXoX.XoXoXoXoXoXoXoX. .XoXoXoXoX",
"XoXoXoXoXoXoXoXoXoXoX.XoXoXoXoXo",
"oXoXoXoXoXoXoXoXoXoXoXoXoXoXoXoX",
"XoXoXoXoXoXoX XoXoXoXoXoXoXoXoXo",
"oXoXoXoXoXoX O XoXoXoXoXoXoXoXoX",
"XoXoXoXoXoXo. .oXoXoXoXoXoXoXoXo",
"oXoXoXoXoXoXo.oXoXoXoXoXoXoXoXoX",
"XoXoXoXoXoXoXoXoXoXoXoXoXoXoXoXo",
"oXoXoXoXoXoXoXoXoXoXoXoXoXoXoXoX",
"XoXoXoXoXoXoXoXoXoXoXoXoXoXoXoXo"
};
