/* XPM */
static char *b4807dc4bf6b4b49ffde4af7d6c90c2f4AOJcwm9h4mkamsN[] = {
/* columns rows colors chars-per-pixel */
"32 32 4 1 ",
"  c #307558",
". c #39944A",
"X c #78BA4B",
"o c #CCD66A",
/* pixels */
"XXXXXXXXXXXXXXXXXXXXXXXXXXXXXXXX",
"XXXXXXXXXXXXXXXXXXXXXXXXXXXXXXXX",
"XXXXXXXXXXXXXXXXXXXXXXXXXXXXXXXX",
"XXXXXXXXXXXXXXXXXXXXXXXXXXXXXXXX",
"XXXX..XXXXXXXXXXXXXXXXXXXXXXXXXX",
"XXXX ooXXXXXXXXXXXXXXXXXXXXXXXXX",
"XXXX.XooXXXXXXXXXXXXXooXXXXXXXXX",
"XXXXX..XXXXXXXXXXXX.ooXXoXXXXXXX",
"XXXXXXXooXXXXXXXXXX  .XooXXXXXXX",
"XXXXX.ooXXoXXXXXXXXXXX.oX.XXXXXX",
"XXXXX  .XooXXXXXXXXXXX.  XXXXXXX",
"XXXXXXXX.oX.XXXXXXXXXXXXXXXXXXXX",
"XXXXXXXX  .XXXXXXXXXXXXXXXXXXXXX",
"XXXXXXXXXXXXXXXXXXXXXXXXXXXXXXXX",
"XXXXXXXXXXXXXXXXXXXXXXXXXXXXXXXX",
"XXXXXXXXXXXXXXXXXXXXXXXXXXXXXXXX",
"XXXXXXXXXXXXXXXXXXXXXXXXXXXXXXXX",
"XXXXXXXXXXXXXXXXXXXXXXXXXXXXXXXX",
"XXXXXXXXXXXXXXXXXXXXXXXXXXXXXXXX",
"XXXXXXXXXXXXXXXXXXXXXXXXXXXXXXXX",
"XXXXXXXXXXXXXXXXXXXXXXXXXooXXXXX",
"XXXXXXXXXXXXXXXXXXXXXoXXXXoo.XXX",
"XXXXXXXXXoXXXXXXXXXXXooXoX.  XXX",
"XXXXXXXoXooXXXXXXXXX.Xo.ooXXXXXX",
"XXXXXXoo.Xo.XXXXXXXXX.  Xo.XXXXX",
"XXXXX.oXX.  XXXXXXXXXXXX.  XXXXX",
"XXXXX  .XXXXXXXXXXXXXXXXXXXXXXXX",
"XXXXXXXXXXXXXXXXXXXXXXXXXXXXXXXX",
"XXXXXXXXXXXXXXXXXXXXXXXXXXXXXXXX",
"XXXXXXXXXXXXXXXXXXXXXXXXXXXXXXXX",
"XXXXXXXXXXXXXXXXXXXXXXXXXXXXXXXX",
"XXXXXXXXXXXXXXXXXXXXXXXXXXXXXXXX"
};
