/* XPM */
static char *dbc309b24794413fb18f264e9beabdb4QDfScbpIUhRNR2Iy[] = {
/* columns rows colors chars-per-pixel */
"32 32 161 2 ",
"   c #7F5C56",
".  c #7D5C5A",
"X  c #765A65",
"o  c #7A5A60",
"O  c #71576F",
"+  c #73586C",
"@  c #6D5674",
"#  c #67547E",
"$  c #6A557B",
"%  c #7D5D76",
"&  c #795C7B",
"*  c #845E4D",
"=  c #805D55",
"-  c #876047",
";  c #896044",
":  c #97674F",
">  c #99684C",
",  c #8E645C",
"<  c #936656",
"1  c #90655A",
"2  c #A77555",
"3  c #A87554",
"4  c #A2735C",
"5  c #805F72",
"6  c #8B6363",
"7  c #86606A",
"8  c #9D7063",
"9  c #87677E",
"0  c #8C6979",
"q  c #AD7D75",
"w  c #A4797E",
"e  c #A87B7A",
"r  c #4F977D",
"t  c #539D76",
"y  c #59A567",
"u  c #67BC74",
"i  c #69BF71",
"p  c #61B47E",
"a  c #65BC7B",
"s  c #6AC16E",
"d  c #6BC671",
"f  c #BD8565",
"g  c #B6826C",
"h  c #B98469",
"j  c #B28070",
"k  c #C18760",
"l  c #C78D6F",
"z  c #CE9067",
"x  c #CD9068",
"c  c #3C45BD",
"v  c #3A7BA6",
"b  c #3978AB",
"n  c #3473B2",
"m  c #3778BF",
"M  c #397EBE",
"N  c #5D518D",
"B  c #574E97",
"V  c #594F94",
"C  c #554E9A",
"Z  c #5B5091",
"A  c #5F529E",
"S  c #635384",
"D  c #615188",
"F  c #6B578E",
"G  c #6F588A",
"H  c #725985",
"J  c #705988",
"K  c #665595",
"L  c #665596",
"P  c #6E5D9C",
"I  c #745F95",
"U  c #715D98",
"Y  c #7A618E",
"T  c #776092",
"R  c #786190",
"E  c #4D4BA5",
"W  c #4B4AA9",
"Q  c #514CA0",
"!  c #564FA9",
"~  c #5B51A3",
"^  c #5D56AE",
"/  c #4147B6",
"(  c #4648B0",
")  c #4E4DB2",
"_  c #484AB9",
"`  c #5652B5",
"'  c #5954B2",
"]  c #5151BA",
"[  c #5E59BE",
"{  c #6559A5",
"}  c #6659A5",
"|  c #6157AA",
" . c #665DB8",
".. c #7C66A4",
"X. c #7E68A2",
"o. c #7362AD",
"O. c #6F62B9",
"+. c #293FD6",
"@. c #243DDC",
"#. c #1F3CE5",
"$. c #1639ED",
"%. c #1939EB",
"&. c #0C36F7",
"*. c #0634FD",
"=. c #3643C4",
"-. c #3A44C2",
";. c #3442CD",
":. c #3E49CE",
">. c #2F41D5",
",. c #2B40D9",
"<. c #3242D2",
"1. c #2057D5",
"2. c #2B67C1",
"3. c #3375C6",
"4. c #367AC3",
"5. c #3070CB",
"6. c #2B6AD0",
"7. c #0F42EE",
"8. c #2641E9",
"9. c #3246E0",
"0. c #4047C3",
"q. c #444AC3",
"w. c #4B4EC1",
"e. c #494FCF",
"r. c #4C51CD",
"t. c #5656C5",
"y. c #434DD4",
"u. c #5053D0",
"i. c #826584",
"p. c #9C7686",
"a. c #98748A",
"s. c #8B6E97",
"d. c #856B9D",
"f. c #917091",
"g. c #9B7795",
"h. c #A17881",
"j. c #896EA4",
"k. c #3F819E",
"l. c #3B80BC",
"z. c #488D8B",
"x. c #4B9187",
"c. c #428696",
"v. c #4E989D",
"b. c #529F96",
"n. c #509C9A",
"m. c #5DAE85",
"M. c #57A68F",
"N. c #58A78D",
"B. c #5AAB8C",
"V. c #5EB186",
"C. c #54A294",
"Z. c #57A893",
"A. c #58AA91",
"S. c #52A299",
"D. c #61B783",
"F. c #448BAD",
"G. c #4A93A4",
"H. c #4C98A3",
"J. c #4791AA",
"K. c #4186B2",
"L. c #428BB1",
/* pixels */
"d s d s d s d s d s d s d s d s d s d s d s d s d s d s d s d s ",
"s d s d s d s d s d s d s d s d s d s d s d s d s d s d s d s d ",
"d s d s s s d s d s d s d s d s d s d s d s d s d s d s d s d s ",
"s d s d s d s d s d s d s d s d s d s d s s s d s d s d s d s d ",
"d s d s d s d s d s d s d d s i d V.V.M.Z.C.S.b.S.n.C.S.A.B.d i ",
"s d s d s d s d s d s d i a B.S.v.G.J.J.F.L.K.K.L.L.F.F.F.L.G.a ",
"d s d s d s d s s s d u + N V V D @ + . = * d d d s d i D.G.3.N.",
"s d s d s d s d i d * @ ^ U e f x k z z x z ; ; s d s d s D.F.C.",
"d s d s d s d s d * 9 ^ d.f k k k z k z z z z z ; s d i s b.M m.",
"s d s d s d s d ; 7 _ ^ h k k k k k z k z z z z z ; d d Z.M F.d ",
"d s d s d s d s ; H ,.K 3 k k k k k k z k z k z z z * M.L.F.s d ",
"s d s d s d s ; < K >.H 3 k k k k k k k z k z k l e S F.G.a i d ",
"d s d s d s d ; , A <.% > 3 k k k k k k k k g h.f...X.+ d s d s ",
"s d s d s d s ;   ~ <.7 > > 4 q k k k f q a.s.X...% < ; s d s d ",
"d s d d d i a   % c ,.% % F ~ ' w h.a.s... .o.H 6 1 < ; d s d s ",
"s d a B.C.n.v.S B ;.@.0.<.%.%.8.w.'  .[ ^ ~ F T R J H $ C.B.i d ",
"d p S.F.F.F.J.C c =.,.#.8.,.-.) ;.c w.' i.i.i.i.Y T K Z 4.5.B.s ",
"s s N.M.B.Z.l.=.%.@.,.( =.;.-.E q.<.<.' 8 3 3 3 3 3 < O L.6.n.d ",
"V.B.v.J.4.@.*.*.8.q.[ t.:.y.u.O./ Z @ 1 3 > 3 2 4 0 H Z F.m.d d ",
"F.4.6.6.$.&.%.8.r.O.o.o.o.f.w l x z x ; > 2 6 9 T P K O i d i d ",
"5.6.6.,.,.-.~ ~ T a.e g k k k k k x x l X & T K I 5 4 ; d s d s ",
"m 3.l.N $ 7 , < > 3 k k k f k k h j p.S Z B S o - ; ; - * a D.d ",
"C.B.a   ,   , , , , 8 8 g j e p.d.U Q ! F & 7 w h.p.a.g.j.W K.p ",
"G.H.v.N S J N G J J J K { | ] ] :.^ N F F F K P P {  .y.9.8.c N.",
"Z.b.c.$ # # J S F A ) -.e.2.q.| ^ | E E ! ~ ~ P { ` ] ] ] ^ V v ",
"s s y y ; ; ; , N ( _ c n k.R R I P v V C Z K K ] 7.:.^ | { b v ",
"d s d s y y y x.1.;.W b v k.c.@ + r t t - - ; y z.n V V V v v G.",
"s d s d s y y a C.x.t y s s y y y s d d y y y d y y y y y d s d ",
"d s d s d s d s d s d s d s d s d s d s d s d s d s d s d s d s ",
"s d s d s d s d s d s d s d s d s d s d s d s d s d s d s s s d ",
"d s d s d s d s d s d s d s d s d s d s d s d s d s d s d s d s ",
"s d s d s d s d s d s d s d s d s d s d s d s d s d s d s d s d "
};
